<svg width="512" height="512" viewBox="0 0 512 512" fill="none" xmlns="http://www.w3.org/2000/svg">
<circle cx="256" cy="256" r="256" fill="#14193D"/>
<rect width="512" height="512" rx="118" fill="#14193D"/>
<path d="M95.71 107.7L80.5 89.5H101.95L115.6 107.7H95.71ZM173.659 107.7L158.449 89.5H179.899L193.549 107.7H173.659ZM251.608 107.7L236.398 89.5H257.848L271.498 107.7H251.608ZM300.308 213V141.5H315.648V151.9H318.768L316.298 153.72C316.298 149.647 317.468 146.397 319.808 143.97C322.148 141.457 325.051 140.2 328.518 140.2C332.244 140.2 335.148 141.803 337.228 145.01C339.308 148.217 340.348 152.463 340.348 157.75L338.008 151.9H341.648L340.478 153.72C340.478 149.647 341.604 146.397 343.858 143.97C346.111 141.457 349.144 140.2 352.958 140.2C357.291 140.2 360.801 141.847 363.488 145.14C366.174 148.347 367.518 152.767 367.518 158.4V213H350.748V159.7C350.748 157.707 350.314 156.19 349.448 155.15C348.581 154.023 347.324 153.46 345.678 153.46C344.031 153.46 342.774 154.023 341.908 155.15C341.041 156.19 340.608 157.707 340.608 159.7V213H327.218V159.7C327.218 157.707 326.784 156.19 325.918 155.15C325.051 154.023 323.794 153.46 322.148 153.46C320.501 153.46 319.244 154.023 318.378 155.15C317.511 156.19 317.078 157.707 317.078 159.7V213H300.308ZM404.387 214.3C397.194 214.3 391.43 211.787 387.097 206.76C382.764 201.733 380.597 194.93 380.597 186.35V168.15C380.597 159.657 382.764 152.897 387.097 147.87C391.43 142.757 397.194 140.2 404.387 140.2C410.28 140.2 414.917 141.933 418.297 145.4C421.677 148.78 423.367 153.547 423.367 159.7L418.817 155.15H423.367L422.717 137.6V118.1H442.217V213H423.367V199.35H418.817L423.367 194.8C423.367 200.953 421.677 205.763 418.297 209.23C414.917 212.61 410.28 214.3 404.387 214.3ZM411.407 197.4C414.96 197.4 417.734 196.403 419.727 194.41C421.72 192.33 422.717 189.427 422.717 185.7V168.8C422.717 165.073 421.72 162.213 419.727 160.22C417.734 158.14 414.96 157.1 411.407 157.1C407.767 157.1 404.95 158.14 402.957 160.22C401.05 162.213 400.097 165.073 400.097 168.8V185.7C400.097 189.427 401.05 192.33 402.957 194.41C404.95 196.403 407.767 197.4 411.407 197.4ZM95.71 349.7L80.5 331.5H101.95L115.6 349.7H95.71ZM173.659 349.7L158.449 331.5H179.899L193.549 349.7H173.659ZM251.608 349.7L236.398 331.5H257.848L271.498 349.7H251.608Z" fill="#FFFF00"/>
</svg>
